<?xml version="1.0" standalone="no"?>
<!DOCTYPE svg PUBLIC "-//W3C//DTD SVG 20010904//EN"
 "http://www.w3.org/TR/2001/REC-SVG-20010904/DTD/svg10.dtd">
<svg version="1.0" xmlns="http://www.w3.org/2000/svg"
 width="512.000000pt" height="512.000000pt" viewBox="0 0 512.000000 512.000000"
 preserveAspectRatio="xMidYMid meet">

<g transform="translate(0.000000,512.000000) scale(0.100000,-0.100000)"
fill="#000000" stroke="none">
<path d="M2410 5110 c-1145 -64 -2128 -915 -2354 -2040 -65 -324 -64 -712 4
-1037 202 -969 971 -1747 1945 -1967 337 -76 736 -78 1085 -5 380 79 766 264
1080 517 447 362 773 895 890 1454 68 326 69 714 4 1038 -115 570 -448 1116
-906 1481 -501 400 -1108 594 -1748 559z m228 -992 c50 -28 1595 -1599 1617
-1645 72 -150 -112 -305 -250 -210 -16 11 -327 323 -690 693 -363 370 -674
680 -692 689 -41 20 -101 19 -139 -2 -18 -10 -328 -319 -690 -688 -362 -368
-674 -680 -694 -692 -71 -46 -169 -24 -223 49 -29 38 -34 123 -10 165 27 49
1570 1614 1616 1641 22 12 57 22 77 22 20 0 55 -10 78 -22z m550 -1297 l592
-599 0 -590 c0 -325 -3 -598 -6 -607 -17 -42 -43 -45 -458 -45 l-395 0 -28 24
-28 24 -3 349 c-3 339 -4 348 -24 370 -21 23 -25 23 -278 23 -253 0 -257 0
-278 -23 -20 -22 -21 -31 -24 -370 l-3 -349 -28 -24 -28 -24 -395 0 c-404 0
-422 2 -451 39 -9 12 -12 159 -13 610 l0 594 328 334 c942 961 842 864 888
863 40 0 44 -4 632 -599z"/>
</g>
</svg>
